<?xml version="1.0" encoding="UTF-8" standalone="no"?>
<!-- Created with Inkscape (http://www.inkscape.org/) -->

<svg
   width="1920"
   height="1080"
   viewBox="0 0 1920 1080"
   version="1.1"
   xmlns="http://www.w3.org/2000/svg"><path
       style="fill:#ff8615;fill-opacity:1;stroke:#000000;stroke-width:16.274;stroke-linecap:butt;stroke-linejoin:miter;stroke-miterlimit:4.6;stroke-dasharray:none;stroke-opacity:1;paint-order:normal"
       d="M 588.19608,-82.764425 V 49.922084 138.37976 h 45.20204 V 49.922084 h 45.20204 a 67.803062,66.343253 0 0 0 67.80306,-66.343251 67.803062,66.343253 0 0 0 -67.80306,-66.343258 h -45.20204 z"
       transform="matrix(1.2280009,0,0,1.2298972,969.74173,505.79941)" /><path
       d="m 1540.2503,690.00031 q -27.2,0 -47.6,-8.4 -20.4,-8.8 -32,-24 -11.2,-15.2 -11.2,-35.6 h 58.8 q 0,11.2 8.4,16.8 8.4,5.6 23.6,5.6 h 17.6 q 16.4,0 25.2,-5.6 9.2,-5.6 9.2,-16 0,-10 -7.2,-14.4 -7.2,-4.8 -22,-6.4 l -50.4,-6 q -29.2,-3.6 -44.8,-21.6 -15.6,-18.4 -15.6,-45.6 0,-66.8 85.6,-66.8 h 18.8 q 40.4,0 64.4,17.6 24,17.6 24,47.2 h -58.8 q 0,-9.6 -8,-14.8 -7.6,-5.2 -21.6,-5.2 h -18.8 q -14,0 -21.2,5.2 -7.2,5.2 -7.2,14.4 0,9.2 6.8,12.4 7.2,3.2 20,4.8 l 48,6 q 32.4,4 48.8,22.8 16.4,18.8 16.4,49.6 0,32.4 -23.2,50.4 -23.2,17.6 -68.4,17.6 z" /><path
       d="m 1312.1504,462 c -27.7333,0 -49.7333,6.40117 -66,19.20117 -16.2667,12.8 -24.7996,29.99961 -25.5996,51.59961 h 56.7988 c 0.5333,-7.73333 3.733,-13.59961 9.5996,-17.59961 6.1334,-4 14.2671,-6 24.4004,-6 10.6667,0 18.8004,2.39922 24.4004,7.19922 5.8667,4.53333 8.8008,10.93255 8.8008,19.19922 v 14 h -43.2012 c -28.5333,0 -50.667,6.40117 -66.4004,19.20117 -15.7333,12.8 -23.5996,30.26706 -23.5996,52.40039 0,20.53334 6.4012,37.2 19.2012,50 12.8,12.53334 30.1333,18.79883 52,18.79883 17.3333,0 31.5988,-3.73255 42.7988,-11.19922 11.4667,-7.46667 18.5345,-17.73411 21.2012,-30.80078 v 38 h 58 V 538 c 0,-24 -8.1337,-42.66667 -24.4004,-56 -16.2667,-13.33333 -38.9333,-20 -68,-20 z m -9.5996,123.59961 h 42 V 608 c 0,10.13333 -3.7345,18.40078 -11.2012,24.80078 -7.2,6.13333 -17.0663,9.19922 -29.5996,9.19922 -10.9333,0 -19.4663,-2.66667 -25.5996,-8 -5.8667,-5.33333 -8.8008,-12.13372 -8.8008,-20.40039 0,-8.26667 2.8004,-14.93333 8.4004,-20 5.8667,-5.33333 14.1341,-8 24.8008,-8 z" /><path
       style="fill:#ffe715;fill-opacity:1;stroke:#000000;stroke-width:20;stroke-linejoin:round;stroke-miterlimit:4.6;stroke-opacity:1"
       d="m 966.44979,404 53.00001,272 53,-172 53,172 53,-272 z" /><path
       d="m 748.34978,686.00031 v -220 h 58 v 41.6 q 4.8,-21.2 20.8,-33.2 16.4,-12.4 40.8,-12.4 33.2,0 52,22.4 18.8,22.4 18.8,61.6 v 22 h -60 v -18 q 0,-17.2 -9.2,-26.4 -9.2,-9.6 -26,-9.6 -16.8,0 -26,10.8 -9.2,10.4 -9.2,30 v 131.2 z" /><path
       d="m 596.65039,462 c -27.73333,0 -49.73333,6.40117 -66,19.20117 -16.26667,12.8 -24.80156,29.99961 -25.60156,51.59961 h 56.80078 c 0.53333,-7.73333 3.73294,-13.59961 9.59961,-17.59961 6.13333,-4 14.26706,-6 24.40039,-6 10.66667,0 18.80039,2.39922 24.40039,7.19922 5.86667,4.53333 8.79883,10.93255 8.79883,19.19922 v 14 h -43.19922 c -28.53333,0 -50.66706,6.40117 -66.40039,19.20117 -15.73333,12.8 -23.59961,30.26706 -23.59961,52.40039 0,20.53334 6.39922,37.2 19.19922,50 12.8,12.53334 30.13333,18.79883 52,18.79883 17.33333,0 31.60078,-3.73255 42.80078,-11.19922 11.46667,-7.46667 18.53255,-17.73411 21.19922,-30.80078 v 38 h 58 V 538 c 0,-24 -8.13177,-42.66667 -24.39844,-56 -16.26667,-13.33333 -38.93333,-20 -68,-20 z m -9.60156,123.59961 h 42 V 608 c 0,10.13333 -3.73255,18.40078 -11.19922,24.80078 -7.2,6.13333 -17.06628,9.19922 -29.59961,9.19922 -10.93333,0 -19.46628,-2.66667 -25.59961,-8 -5.86667,-5.33333 -8.80078,-12.13372 -8.80078,-20.40039 0,-8.26667 2.80039,-14.93333 8.40039,-20 5.86667,-5.33333 14.13216,-8 24.79883,-8 z" /><path
       style="font-weight:800;font-size:400px;font-family:'JetBrains Mono';-inkscape-font-specification:'JetBrains Mono Ultra-Bold';letter-spacing:-1.5px;stroke-width:2.5;stroke-linejoin:round;stroke-miterlimit:4.6;stroke-opacity:0.552735"
       d="m 263.34945,686.00031 v -292 h 60 v 72 l -2,39.6 q 5.2,-20 20.8,-31.6 16,-12 38.4,-12 32,0 51.2,22.4 19.6,22.4 19.6,59.6 v 142 h -60 v -136 q 0,-17.2 -9.2,-26.4 -8.8,-9.6 -24.8,-9.6 -16,0 -25.2,9.6 -8.8,9.2 -8.8,26.4 v 136 z" /><path
       style="fill:#ffe715;fill-opacity:1;stroke:#000000;stroke-width:20;stroke-linejoin:round;stroke-miterlimit:4.6;stroke-opacity:1"
       d="M 209.24922,399.99996 A 185.2,140 0 0 0 34.05,539.79683 185.2,140 0 0 0 209.24922,679.5918 Z" /></svg>
